<?xml version="1.0" standalone="no"?>
<!DOCTYPE svg PUBLIC "-//W3C//DTD SVG 1.1//EN" "http://www.w3.org/Graphics/SVG/1.1/DTD/svg11.dtd" >
<svg xmlns="http://www.w3.org/2000/svg">
<metadata>Generated by IcoMoon</metadata>
<defs>
<font id="mayki_icons" horiz-adv-x="1024">
<font-face units-per-em="1024" ascent="960" descent="-64" />
<missing-glyph horiz-adv-x="1024" />
<glyph unicode="&#x20;" horiz-adv-x="512" d="" />
<glyph unicode="&#xe900;" glyph-name="cotton" d="M761.347 635.149c-32.527 111.251-134.088 188.005-250.925 188.005-115.588 0-216.885-75.766-250.234-185.638-109.806-33.316-185.573-134.58-185.573-250.103 0-144.37 117.395-261.8 261.8-261.8 48.234 0 94.428 13.078 134.645 37.456 3.319-1.314 7.656-2.365 11.96-3.417v-67.421c0-10.777 8.674-19.385 19.385-19.385 10.678 0 19.385 8.674 19.385 19.385v64.99c8.148 1.249 16.001 3.548 22.277 8.477 42.154-28.060 91.538-43.239 143.549-43.239 144.37 0 261.767 117.429 261.767 261.734 0 116.837-76.785 218.428-188.037 250.957zM687.649 161.23h-0.065c-33.087 0-64.825 7.294-93.871 20.897 117.363 55.857 145.784 199.109 145.784 199.109-83.817-20.569-138.26-52.11-174.171-85.032 10.678 112.040-65.81 206.403-65.81 206.403-38.507-78.987-48.759-141.94-45.933-190.83-32.659 28.979-78.527 57.368-144.502 80.235 0 0 14.193-139.179 119.334-207.586-28.586-12.946-59.733-20.042-92.063-20.042-122.982 0-222.964 100.080-222.964 223.029 0 101.591 68.8 190.303 167.304 215.67l11.106 2.826 2.826 11.106c25.431 98.569 114.044 167.371 215.767 167.371 102.808 0 191.685-69.721 216.26-169.604l2.826-11.435 11.368-2.826c99.982-24.51 169.736-113.42 169.736-216.26 0.065-123.080-99.916-223.029-222.93-223.029z" />
<glyph unicode="&#xe901;" glyph-name="arrow-down" d="M557.217 18.313l290.35 290.277c24.962 24.962 24.962 65.472 0 90.434s-65.472 24.962-90.47 0l-181.122-181.159v614.64c0 35.327-28.648 63.938-63.976 63.938-35.29 0-63.976-28.612-63.976-63.938v-614.64l-181.122 181.159c-24.962 24.962-65.508 24.962-90.47 0-12.482-12.482-18.721-28.831-18.721-45.179 0-16.422 6.241-32.773 18.721-45.253l290.35-290.277c24.962-25.035 65.472-25.035 90.434 0z" />
<glyph unicode="&#xe902;" glyph-name="delivery-01" d="M936.153 400.907c-0.064 1.23-0.194 2.408-0.375 3.639-0.181 0.984-0.428 1.917-0.673 2.902-0.311 1.050-0.557 2.098-0.984 3.147-0.375 0.984-0.803 1.852-1.244 2.772-0.492 0.984-0.984 1.917-1.541 2.836-0.492 0.867-1.1 1.671-1.722 2.408-0.686 0.933-1.361 1.722-2.163 2.591-0.673 0.739-1.411 1.425-2.15 2.098-0.816 0.739-1.606 1.425-2.474 2.033-0.919 0.686-1.917 1.244-2.902 1.788-0.622 0.375-1.050 0.739-1.722 1.050l-47.196 23.624v143.050c0 18.016-14.609 32.639-32.625 32.639h-130.591v97.954c0 18.016-14.623 32.625-32.639 32.625h-424.386c-18.028 0-32.639-14.609-32.639-32.625s14.609-32.639 32.639-32.639h391.761v-293.796c0-18.016 14.623-32.639 32.625-32.639 18.016 0 32.639 14.623 32.639 32.639v163.216h97.954v-130.591c0-0.622 0.13-1.23 0.194-1.852 0.053-1.23 0.181-2.408 0.363-3.639 0.181-0.984 0.428-1.969 0.673-2.902 0.311-1.050 0.557-2.098 0.997-3.147 0.363-0.984 0.79-1.852 1.23-2.836 0.428-0.984 0.984-1.904 1.541-2.836 0.492-0.855 1.114-1.658 1.722-2.408 0.686-0.855 1.361-1.722 2.098-2.525 0.686-0.739 1.425-1.411 2.228-2.098 0.803-0.739 1.594-1.411 2.461-2.033 0.933-0.673 1.917-1.23 2.902-1.788 0.622-0.375 1.050-0.739 1.736-1.050l47.248-23.624v-110.426h-38.375c-13.509 37.949-49.656 65.263-92.216 65.263s-78.707-27.315-92.216-65.263h-272.593c-13.509 37.949-49.656 65.263-92.229 65.263-42.56 0-78.707-27.315-92.216-65.263h-71c-18.003 0-32.639-14.609-32.639-32.625s14.636-32.639 32.639-32.639h71c13.509-37.936 49.656-65.263 92.216-65.263 42.571 0 78.721 27.329 92.229 65.263h272.593c13.509-37.936 49.656-65.263 92.216-65.263s78.707 27.329 92.216 65.263h71c18.016 0 32.639 14.623 32.639 32.639v163.216c0 0.622-0.13 1.23-0.194 1.852h-0.053zM283.455 203.201c-18.016 0-32.639 14.623-32.639 32.639s14.623 32.625 32.639 32.625c18.003 0 32.625-14.609 32.625-32.625s-14.623-32.639-32.625-32.639zM740.481 203.201c-18.003 0-32.625 14.623-32.625 32.639s14.623 32.625 32.625 32.625c18.016 0 32.639-14.609 32.639-32.625s-14.623-32.639-32.639-32.639zM152.864 562.337h261.118c18.003 0 32.625 14.623 32.625 32.639 0 18.003-14.623 32.625-32.625 32.625h-261.118c-18.016 0-32.625-14.623-32.625-32.625 0-18.016 14.609-32.639 32.625-32.639zM120.239 431.758h228.467c18.028 0 32.639 14.609 32.639 32.625 0 18.003-14.609 32.625-32.639 32.625h-228.467c-18.028 0-32.639-14.623-32.639-32.625 0-18.016 14.609-32.625 32.639-32.625z" />
<glyph unicode="&#xe903;" glyph-name="fast_delivery" d="M378.679 296.535c-10.874 0-19.035-8.163-19.035-19.035 0-10.905 8.163-19.070 19.035-19.070s19.035 8.163 19.035 19.070c0 10.874-8.163 19.035-19.035 19.035zM967.353 448.893l-152.357 151.498h-113.392v76.179c0 20.854-17.251 38.074-38.106 38.074h-418.172c-20.854 0-38.074-17.22-38.074-38.074h-133.321c-10.905 0-19.070-8.196-19.070-19.070 0-10.842 8.163-19.035 19.070-19.035h133.321v-76.179h-95.248c-10.874 0-19.035-8.163-19.035-19.070 0-10.874 8.163-19.035 19.035-19.035h95.248v-76.179h-57.142c-10.905 0-19.070-8.163-19.070-19.070 0-10.842 8.163-19.035 19.070-19.035h57.142v-76.179h-19.070c-10.874 0-19.035-8.163-19.035-19.070 0-10.874 8.163-19.005 19.035-19.005h19.070c0-20.885 17.22-38.106 38.074-38.106h39.923c9.056-43.558 47.161-76.179 93.43-76.179 46.237 0 84.342 32.621 93.398 76.179h251.273c9.088-43.558 47.161-76.179 93.43-76.179 46.237 0 84.342 32.621 93.398 76.179h58.96v189.539l-1.786 1.818zM378.679 221.25c-31.759 0-57.142 25.383-57.142 57.142 0 31.728 25.383 57.142 57.142 57.142 31.728 0 57.142-25.414 57.142-57.142 0-31.759-25.414-57.142-57.142-57.142zM663.498 297.46h-192.313c-9.056 43.494-47.161 76.179-93.43 76.179-46.237 0-84.342-32.684-93.43-76.179h-39.893v380.002h418.14v-380.002h0.925zM815.855 221.25c-31.728 0-57.142 25.383-57.142 57.142 0 31.728 25.414 57.142 57.142 57.142s57.142-25.414 57.142-57.142c0-31.759-25.414-57.142-57.142-57.142zM929.247 297.46h-20.885c-9.056 43.494-47.161 76.179-93.366 76.179-46.299 0-84.406-32.684-93.462-76.179h-20.885v265.718h97.958l130.642-129.717v-136zM815.855 297.46c-10.874 0-19.070-8.196-19.070-19.070 0-10.905 8.196-19.035 19.070-19.035 10.905 0 19.035 8.131 19.035 19.035 0 10.874-8.131 19.070-19.035 19.070z" />
<glyph unicode="&#xe904;" glyph-name="confirmed" d="M920.625 856.625h-817.25c-18.79 0-34.043-15.253-34.043-34.043v-612.938c0-18.79 15.253-34.043 34.043-34.043h102.115v-102.184c0-13.063 7.539-25.033 19.318-30.692 4.688-2.255 9.712-3.351 14.725-3.351 7.591 0 15.13 2.512 21.305 7.457l160.935 128.77h498.852c18.79 0 34.043 15.253 34.043 34.043v612.938c0 18.79-15.253 34.043-34.043 34.043zM886.582 243.687h-476.697c-7.728 0-15.266-2.635-21.318-7.471l-114.922-91.957v65.317c0 18.79-15.253 34.043-34.043 34.043h-102.197v544.865h749.178v-544.797zM413.099 338.86c4.377-5.215 10.158-8.876 16.535-10.74 3.269-0.973 6.686-1.419 10.106-1.351 10.294 0.189 19.886 5.012 26.181 13.118l225.103 289.515c11.577 14.86 8.876 36.232-5.984 47.823-14.86 11.577-36.232 8.876-47.809-5.998l-199.354-256.364-52.199 61.709c-12.159 14.359-33.652 16.144-48.011 3.985-14.347-12.159-16.144-33.652-3.972-47.998l79.34-93.699h0.068z" />
<glyph unicode="&#xe905;" glyph-name="chevron-left" d="M639.375 23.142c31.831-31.637 83.521-31.637 115.256 0 31.831 31.588 31.831 82.889 0 114.525l-315.346 310.332 315.346 310.332c31.928 31.588 31.928 82.889 0 114.477-15.867 15.818-36.796 23.751-57.628 23.751s-41.761-7.934-57.628-23.751l-370.102-367.572c-31.831-31.637-31.831-82.889 0-114.525l370.102-367.572z" />
<glyph unicode="&#xe906;" glyph-name="payment" d="M914.803 582.259h-33.559v201.403c0 18.524-15.035 33.559-33.559 33.559h-738.491c-18.524 0-33.559-15.035-33.559-33.559v-671.322c0-18.524 15.035-33.559 33.559-33.559h738.491c18.524 0 33.559 15.035 33.559 33.559v201.403h33.559c18.524 0 33.559 15.035 33.559 33.559v201.402c0 18.524-15.035 33.559-33.559 33.559zM814.076 145.897h-671.322v604.206h671.322v-167.844h-201.403c-18.524 0-33.559-15.035-33.559-33.559v-201.403c0-18.524 15.035-33.559 33.559-33.559h201.403v-167.843zM881.192 380.857h-234.96v134.286h234.96v-134.286zM746.893 447.973c0 18.511-15.035 33.559-33.559 33.559s-33.559-15.048-33.559-33.559c0-18.524 15.035-33.559 33.559-33.559s33.559 15.035 33.559 33.559zM404.667 684.891h-81.312c-17.764 0-30.655-12.877-30.655-30.641v-169.869h-56.063c-17.764 0-30.641-12.877-30.641-30.641s12.877-30.641 30.641-30.641h56.063v-34.689h-56.063c-17.764 0-30.641-12.877-30.641-30.641s12.877-30.641 30.641-30.641h56.063v-63.054c0-17.751 12.891-30.628 30.655-30.628 17.751 0 30.628 12.877 30.628 30.628v63.054h59.499c17.764 0 30.641 12.877 30.641 30.641s-12.877 30.641-30.641 30.641h-59.499v34.689h50.683c61.723 0 111.901 50.243 111.901 111.901v37.94c0 61.71-50.243 111.887-111.901 111.887v0.066zM455.351 534.998c0-27.912-22.705-50.683-50.683-50.683h-50.683v139.305h50.683c27.459 0 50.683-23.224 50.683-50.683v-37.94z" />
<glyph unicode="&#xe907;" glyph-name="percent" d="M740.468 443.467c-120.556 0-219.402-99.719-219.402-221.231 0-122.385 97.891-221.192 219.402-221.192 120.596 0 219.402 99.719 219.402 221.192 0 122.385-97.891 221.231-219.402 221.231zM740.468 75.399c-79.761 0-145.048 66.162-145.048 146.838 0 80.715 65.288 146.877 145.048 146.877 79.801 0 145.048-66.162 145.048-146.877 0-80.675-65.249-146.838-145.048-146.838zM283.532 452.533c120.596 0 219.402 99.741 219.402 221.21 0 122.404-98.807 221.21-219.402 221.21-120.556 0-219.402-99.719-219.402-221.21 0-122.385 98.846-221.21 219.402-221.21zM283.532 820.621c79.801 0 145.088-66.183 145.088-146.877s-65.288-146.858-145.088-146.858c-79.781 0-145.048 66.162-145.048 146.858s65.268 146.877 145.048 146.877zM929.929 872.291c-7.237 7.257-16.302 10.895-26.281 10.895-9.94 0-19.005-3.639-26.242-10.895l-784.247-795.103c-14.492-14.473-14.492-38.052 0-52.604 7.237-7.237 16.302-10.855 26.302-10.855 9.96 0 19.026 3.618 26.281 10.855l784.187 795.142c14.552 14.492 14.552 38.052 0 52.565z" />
<glyph unicode="&#xe908;" glyph-name="arrow-right" d="M922.635 488.523l-279.472 279.508c-24.030 24.030-63.026 24.030-87.056 0s-24.030-63.026 0-87.056l174.393-174.393h-591.653c-33.972 0-61.55-27.578-61.55-61.586s27.578-61.55 61.55-61.55h591.653l-174.393-174.393c-24.066-24.030-24.066-63.026 0-87.056 12.015-12.015 27.788-18.058 43.529-18.058s31.513 6.043 43.529 18.058l279.472 279.472c24.066 24.030 24.066 63.026 0 87.056z" />
<glyph unicode="&#xe909;" glyph-name="chevron-right" d="M384.578 872.854c-31.831 31.588-83.472 31.588-115.303 0s-31.831-82.887 0-114.524l315.392-310.33-315.392-310.33c-31.831-31.588-31.831-82.887 0-114.475 15.915-15.818 36.796-23.751 57.628-23.751 20.879 0 41.761 7.934 57.675 23.751l370.051 367.568c31.928 31.637 31.928 82.887 0 114.524l-370.051 367.568z" />
<glyph unicode="&#xe90a;" glyph-name="star" d="M943.096 486.381l-65.466 57.551 29.312 83.503c5.649 14.656 3.381 29.312-3.381 42.895-7.875 13.523-20.284 23.684-36.073 27.066h-1.113l-85.789 15.789-15.789 85.789c-4.534 24.818-27.125 42.855-53.056 42.855-5.649 0-10.143-1.133-15.789-2.267h-1.113l-83.562-28.179-57.511 65.445c-10.182 12.41-24.818 19.171-40.628 19.171-15.789 0-30.485-6.761-40.649-19.171l-57.551-65.445-83.503 29.312c-5.628 2.267-11.276 3.381-18.038 3.381-24.857 0-46.276-16.904-51.923-41.722v-1.133l-15.789-85.789-85.789-15.789c-14.656-2.247-27.066-11.276-34.961-23.684-7.895-13.523-10.143-29.351-5.628-45.143v-1.133l29.312-83.483-65.445-57.551c-12.41-10.162-19.171-24.857-19.171-40.649s6.761-30.466 19.171-40.649l65.445-57.511-29.312-83.523c-4.515-14.677-3.381-29.312 3.381-42.875 7.895-13.562 20.305-23.705 36.094-27.085h1.113l85.789-15.789 15.789-85.789c4.515-24.818 27.066-42.875 53.056-42.875 5.628 0 10.143 1.154 15.789 2.267h1.113l83.503 29.312 57.551-65.427c10.162-11.295 24.857-18.056 39.515-18.056 15.789 0 30.466 6.761 39.494 18.056l57.551 65.427 83.523-29.312c5.649-2.267 11.256-3.381 18.056-3.381 24.778 0 46.256 16.904 51.904 41.722v1.113l15.789 85.789 85.789 15.789c14.637 2.267 27.045 11.295 34.961 23.705 7.875 13.562 10.143 29.351 5.649 45.143v1.113l-28.199 83.562 65.427 57.511c11.295 10.182 18.056 24.818 18.056 39.515 0 15.789-6.761 30.485-18.056 39.494l1.154 1.133zM839.25 390.449v0c-15.789-14.677-22.551-37.227-14.677-57.551l28.199-82.369-84.596-15.789c-11.295-2.267-20.323-6.761-28.199-14.716-7.955-7.875-12.449-16.904-14.716-28.199l-15.789-84.596-81.216 28.199c-5.649 2.227-11.295 3.381-18.096 3.381-14.677 0-29.312-6.761-39.494-18.056v0l-56.417-64.312-56.417 64.312c-10.143 11.295-24.818 18.056-39.515 18.056-5.628 0-12.41-1.154-18.038-3.381l-81.235-28.199-15.789 84.596c-2.267 11.295-6.821 20.323-14.716 28.199-7.895 7.955-16.904 12.449-28.179 14.716l-84.637 15.789 28.199 81.216c7.895 20.363 1.133 42.915-14.656 57.59v0l-65.445 56.417 65.445 56.417c15.789 14.656 22.551 37.267 14.656 57.551l-28.199 81.235 84.637 15.789c11.276 2.267 20.284 6.821 28.179 14.716s12.449 16.904 14.716 28.179l15.789 84.637 81.235-28.199c5.628-2.267 11.276-3.381 18.038-3.381 14.695 0 29.372 6.761 39.515 18.038v0l56.417 65.445 56.417-65.445c10.182-11.276 24.818-18.038 39.494-18.038 5.688 0 12.449 1.113 18.096 3.381l82.369 28.199 15.75-84.637c2.267-11.276 6.801-20.284 14.716-28.179s16.904-12.449 28.199-14.716l84.637-15.789-28.199-81.235c-6.761-20.284-1.154-42.895 14.637-57.551v0l64.351-56.417-64.351-56.417-1.113 1.113zM660.949 531.503l-71.073 5.667-27.085 66.579c-7.915 20.305-27.125 32.712-48.543 32.712s-40.628-12.41-48.523-32.712l-27.066-66.579-71.094-5.667c-21.457-2.267-39.515-15.789-45.143-37.227-6.782-20.305 0-41.761 15.789-55.305l55.284-46.256-16.904-68.846v-1.113c-3.381-15.789 0-31.579 10.143-44.028 10.162-12.41 24.818-20.323 40.649-20.323 9.009 0 19.171 2.267 27.066 7.915l60.932 38.381 60.932-37.267c9.028-5.649 18.056-7.875 28.199-7.875 15.829 0 31.619 7.875 40.649 20.284 10.143 12.449 13.523 29.351 9.028 45.143l-16.944 68.846 55.323 46.276c15.789 13.543 22.551 35 15.789 55.305s-24.818 34.961-45.143 37.207l-2.267-1.113z" />
<glyph unicode="&#xe90b;" glyph-name="thumbs_up" d="M936.24 332.735c-0.337 1.043-0.807 2.087-1.245 3.062l-52.163 101.297c-0.067 0.134-0.134 0.27-0.203 0.337-3.567 6.663-3.837 15.28-0.775 21.606l51.725 100.423c4.745 7.875 5.654 17.096 2.658 26.116-3.062 9.22-9.289 16.22-17.399 19.621l-101.129 51.592c-6.966 3.837-11.98 10.871-13.025 18.443 0 0.101 0 0.203-0.067 0.302l-18.039 113.245c-2.423 16.289-15.918 28.067-32.072 28.067-1.716 0-3.567-0.134-5.116-0.371l-113.043-18.039c-1.211-0.134-2.389-0.203-3.634-0.203-7.235 0-14 2.658-18.543 7.235l-80.366 81.342c-5.856 5.856-14.203 9.188-22.918 9.188-8.75 0-17.096-3.332-23.020-9.255l-80.163-81.207c-3.97-3.97-10.23-6.596-16.22-6.832-0.134 0-0.235 0.034-0.337 0.034-1.413 0.27-3.23 0.673-5.384 0.875l-112.134 17.837c-1.649 0.27-3.332 0.404-5.047 0.404-15.75 0-29.616-11.913-32.275-27.966l-18.072-113.379c0-0.203-0.067-0.337-0.067-0.505-1.28-9.928-7.74-15.379-12.99-18.24l-102.139-52.062c-0.707-0.404-1.448-0.74-2.087-1.211-2.658-1.75-10.735-7.203-14.302-17.904-3.297-9.725-0.47-17.938 0.943-22.346 0.337-1.077 0.807-2.087 1.346-3.096l53.173-102.307c0.067-0.067 0.067-0.168 0.134-0.235 3.703-6.832 3.703-15.312 0-22.144-0.067-0.134-0.134-0.27-0.203-0.337l-51.76-100.525c-4.78-7.943-5.654-17.096-2.693-26.149 3.096-9.154 9.356-16.255 17.433-19.587l101.129-51.625c6.966-3.802 11.98-10.837 13.025-18.408 0-0.134 0.067-0.203 0.067-0.337l18.039-113.28c2.423-16.255 15.884-28.067 32.039-28.067 1.75 0 3.567 0.168 5.149 0.438l113.379 18.072c1.043 0.134 2.087 0.337 3.129 0.673 0.168 0 0.438 0 0.572 0 7.034 0 12.52-2.22 17.163-6.797l80.366-81.307c5.856-5.889 14.203-9.22 22.884-9.22 8.75 0 17.163 3.332 22.985 9.289l79.894 80.802c6.293 5.52 15.043 8.48 22.448 7.505l113.043-17.97c1.649-0.302 3.366-0.438 5.047-0.438 15.75 0 29.649 11.948 32.275 27.933l18.072 113.413c0 0.203 0.067 0.337 0.067 0.539 1.28 9.861 7.74 15.346 13.025 18.207l102.106 52.030c0.74 0.438 1.413 0.842 2.154 1.28 2.658 1.716 10.735 7.134 14.337 17.904 3.163 9.725 0.47 17.938-1.077 22.312l-0.101-0.067zM799.337 276.601c-0.134-0.067-0.235-0.067-0.371-0.134-19.284-10.433-32.072-28.505-34.933-49.606l-16.592-104.158-103.789 16.525c-0.101 0-0.168 0.067-0.302 0.067-2.995 0.505-6.125 0.707-9.154 0.707-17.366 0-34.866-6.966-48.158-18.98-0.235-0.27-0.606-0.47-0.842-0.775l-73.332-74.275-73.399 74.375c-12.587 12.552-28.875 19.149-47.047 19.149-2.693 0-7.404 0-12.418-1.582l-101.668-16.255-16.625 104.293c-3.030 20.832-16.087 39.307-34.899 49.539-0.101 0.067-0.235 0.067-0.371 0.134l-94.062 47.923 47.957 93.121c10.23 19.082 10.163 42.707 0 61.789l-48.866 94.062 93.961 47.923c0.134 0.067 0.27 0.134 0.404 0.203 19.284 10.399 32.039 28.47 34.933 49.539l16.592 104.125 103.755-16.49c0.639-0.168 1.346-0.203 2.020-0.203 0.203-0.067 0.438-0.067 0.639-0.134 1.953-0.404 4.543-0.943 7.639-0.943 17.366 0 34.933 7.203 47.082 19.317l73.332 74.24 73.399-74.307c12.52-12.52 30.154-19.688 48.461-19.688 3.096 0 6.26 0.203 9.389 0.639 0.168 0 0.302 0.067 0.505 0.067l103.755 16.557 16.592-104.26c3.062-20.866 16.087-39.375 34.933-49.505 0.134-0.067 0.235-0.134 0.371-0.203l94.030-47.957-47.957-93.188c-0.067-0.067-0.067-0.101-0.134-0.168-9.255-18.577-8.817-41.629 1.178-60.375l47.889-93.121-94.030-47.923 0.134-0.067zM665.899 532.27h-85.312v59.198c0 30.087-9.087 52.163-27.092 65.188-27.125 20.057-63.27 10.030-67.24 8.010-7.034-2.020-12.047-9.052-12.047-16.087v-74.24c0-53.24-63.235-72.22-65.188-72.22-2.020 0-2.995-1.010-5.015-2.020-5.99 4.98-14.067 8.010-22.077 8.010h-52.163c-20.057 0-36.144-16.087-36.144-36.178v-182.606c0-20.092 16.087-36.144 36.144-36.144h52.163c9.052 0 18.039 4.039 24.096 9.995 11.039-9.995 26.116-16.052 43.111-16.052h180.587c43.211 0 71.28 24.129 76.293 63.235l24.096 154.539c0 1.010 0 2.020 0 3.030 2.020 35.067-28.067 64.211-64.211 64.211v0.134zM383.948 288.413c0-0.975-0.975-2.020-2.020-2.020h-52.163c-0.975 0-2.020 0.975-2.020 2.020v183.616c0 0.943 0.943 1.985 2.020 1.985h52.163c0.975 0 2.020-0.975 2.020-1.985v-183.616zM672.933 314.53c-0.975-9.020-4.039-34.125-42.168-34.125h-180.587c-17.062 0-31.129 14.034-31.129 31.129v157.534c4.039 1.010 90.327 26.116 90.327 105.404v59.163c8.043 1.010 18.072 0 25.072-4.98 9.052-5.99 13.025-19.116 13.025-37.121v-76.293c0-9.020 8.010-17.030 17.096-17.030h102.307c17.062 0 31.129-13.057 31.129-30.121l-25.072-153.495v-0.067z" />
<glyph unicode="&#xe90c;" glyph-name="timer" d="M864.456 638.346c-41.193 64.8-99.379 116.864-168.134 150.634-10.668 5.267-23.625 0.791-28.875-9.877-5.284-10.686-0.807-23.625 9.861-28.908 128.76-63.203 208.755-191.473 208.755-334.772 0-205.49-167.158-372.683-372.666-372.683-205.49 0-372.683 167.193-372.683 372.683 0 83.293 26.839 162.042 77.69 227.718 7.27 9.423 5.537 22.968-3.871 30.238s-22.968 5.537-30.238-3.871c-56.723-73.349-86.693-161.252-86.693-254.154 0-111.057 43.245-215.52 121.793-294.067 78.564-78.547 182.943-121.793 294.067-121.793 111.074 0 215.502 43.245 294.050 121.793s121.827 182.943 121.827 294.067c0 79.289-22.379 156.305-64.75 222.923l-0.134 0.067zM512.337 710.23c50.985 0 92.616 41.698 92.616 92.631 0 50.985-41.698 92.631-92.616 92.631-51.002 0-92.649-41.713-92.649-92.631 0-51.002 41.713-92.631 92.649-92.631zM452.129 398.866c12.94-17.601 32.443-28.707 52.787-31.5 20.361-2.793 41.713 1.884 60.19 15.75 35.27 25.98 42.673 76.899 16.693 112.134l-249.275 261.288c-12.082 16.693-35.235 19.485-51.861 7.404-16.676-12.082-19.485-35.235-7.404-51.861l178.87-313.216z" />
<glyph unicode="&#xe90d;" glyph-name="graduate" d="M928.569 591.475l-405.761 186.227c-5.916 2.934-12.764 2.934-18.633 0l-408.73-186.227c-7.849-2.934-12.752-10.773-12.752-19.599s4.903-16.665 12.752-20.59l119.579-57.321v-133.797c0-3.936 1.957-7.849 3.925-11.762 2.934-5.893 84.292-126.45 288.163-126.45 81.474 0 145.083 19.495 192.085 43.089v-49.844c-17.818-8.269-30.372-26.412-30.372-47.142 0-28.415 23.524-51.964 51.94-51.964 28.439 0 51.964 23.547 51.964 51.964 0 20.357-12.089 38.221-29.417 46.7v76.512c39.596 27.577 58.928 53.478 59.813 56.156 1.957 2.934 3.889 7.825 3.889 12.74v129.384c0 1.514-0.14 3.016-0.489 4.471l122.048 58.24c7.849 2.946 12.74 10.783 12.74 19.611 0 7.837-4.891 15.686-12.74 19.599zM720.762 160.186c-4.891 0-7.825 2.958-7.825 7.873 0 4.891 3.913 7.825 7.825 7.825 3.936 0 7.849-2.934 7.849-7.825 0-4.915-2.934-7.873-7.849-7.873zM506.13 266.070c-158.789 0-231.319 80.355-247.996 100.945v106.268l242.104-116.051c2.934-1.002 6.87-1.979 9.806-1.979s6.848 0.979 9.828 1.979l179.321 85.596v-126.66c-42.857-25.598-106.466-50.1-193.064-50.1zM763.897 367.993c-4.099-4.495-10.924-11.599-20.59-20.007v115.874l20.59 9.818v-105.686zM716.383 499.661l-194.601 104.567c-9.783 5.87-23.513 1.957-29.382-8.828-5.882-9.795-1.957-23.524 8.84-29.417l166.161-89.672-157.357-74.987-352.855 169.562 355.789 161.737 352.866-161.737-149.462-71.225z" />
<glyph unicode="&#xe90e;" glyph-name="check" d="M896 746.667q18.333 0 30.5-12.167t12.167-30.5q0-18-12.333-30.333l-512-512q-12.333-12.333-30.333-12.333t-30.333 12.333l-256 256q-12.333 12.333-12.333 30.333 0 18.333 12.167 30.5t30.5 12.167q18 0 30.333-12.333l225.667-226 481.667 482q12.333 12.333 30.333 12.333z" />
<glyph unicode="&#xe90f;" glyph-name="smile" horiz-adv-x="878" d="M617.52 360.63q-18.059-59.059-67.357-95.179t-111.286-36.12-111.286 36.12-67.357 95.179q-3.905 12.202 1.952 23.672t18.548 15.375q12.202 3.905 23.672-1.952t15.375-18.548q12.202-39.048 45.149-63.208t73.946-24.161 73.946 24.161 45.149 63.208q3.905 12.691 15.62 18.548t23.916 1.952 18.059-15.375 1.952-23.672zM376.402 572.952q0-25.87-18.304-44.172t-44.172-18.304-44.172 18.304-18.304 44.172 18.304 44.172 44.172 18.304 44.172-18.304 18.304-44.172zM626.306 572.952q0-25.87-18.304-44.172t-44.172-18.304-44.172 18.304-18.304 44.172 18.304 44.172 44.172 18.304 44.172-18.304 18.304-44.172zM751.259 448q0 63.452-24.893 121.292t-66.625 99.571-99.571 66.625-121.292 24.893-121.292-24.893-99.571-66.625-66.625-99.571-24.893-121.292 24.893-121.292 66.625-99.571 99.571-66.625 121.292-24.893 121.292 24.893 99.571 66.625 66.625 99.571 24.893 121.292zM813.734 448q0-102.013-50.273-188.161t-136.422-136.422-188.161-50.273-188.161 50.273-136.422 136.422-50.273 188.161 50.273 188.161 136.422 136.422 188.161 50.273 188.161-50.273 136.422-136.422 50.273-188.161z" />
<glyph unicode="&#xe910;" glyph-name="happy" d="M805.562 786.515l-0.533 0.52c-1.067 0.547-1.573 1.6-2.625 2.134-0.547 0.52-1.067 1.053-1.614 1.053-0.506 0.52-1.559 1.053-2.106 1.587-0.533 0.52-1.587 1.053-2.12 1.587-0.52 0.52-0.52 0.52-1.053 1.053-77.204 63.479-176.135 101.554-283.514 101.554-246.995 0-448-200.991-448-448s201.005-448 448-448c247.023 0 448 200.991 448 448 0 134.873-59.773 256.006-154.438 337.982v0.533zM512 69.823c-208.92 0-378.697 169.791-378.697 378.711 0 2.639 0 4.758 0 7.411 0 0.52 0 1.053 0 1.587 0 2.106 0 4.744 0 6.877 0 0.52 0 1.053 0 1.053 0 2.106 0 4.224 0.52 6.877v0.533c0 2.106 0.533 4.744 0.533 6.877 0 0.52 0 1.053 0 1.053 0 2.106 0.533 4.758 0.533 6.877v0.533c0 2.106 0.52 4.744 1.053 6.864v0.533c0.52 2.639 0.52 4.758 1.053 7.411 0 0.533 0 0.533 0 1.053 0.533 4.758 1.587 10.048 2.639 14.82 0 0 0 0 0 0.52 0.533 2.639 1.067 4.758 1.6 7.397v0c11.635 55.015 35.438 105.792 67.703 149.694v0c17.979 23.803 38.609 45.486 61.879 64.532v0c2.12 1.587 4.224 3.171 6.344 4.758v0c2.12 1.587 4.238 3.171 6.344 4.758v0c42.315 32.265 91.506 55.535 144.935 67.703v0c2.639 0.533 5.291 1.053 7.931 1.587v0c5.291 1.067 10.582 2.12 15.873 2.653h0.52c2.653 0.52 5.305 0.52 7.411 1.053 0.533 0 0.533 0 1.053 0 2.653 0.533 5.305 0.533 7.411 1.053h0.533c5.291 0.533 10.568 1.067 15.859 1.587 0.533 0 0.533 0 1.067 0 2.639 0 4.758 0.533 7.397 0.533 0.533 0 1.067 0 1.587 0 2.653 0 4.771 0 7.411 0 0.533 0 0.533 0 1.053 0 2.653 0 5.291 0 7.944 0 2.639 0 5.291 0 7.931 0 0.533 0 0.533 0 1.053 0 2.653 0 4.758 0 7.424 0 0.506 0 1.053 0 1.559 0 2.667 0 4.785 0 7.424-0.533 0.52 0 0.52 0 1.053 0 5.305-0.52 10.582-1.053 15.339-1.587 0.533 0 0.533 0 1.053 0 2.653-0.52 4.758-0.52 7.424-1.053 0.506 0 0.506 0 1.053 0 2.639-0.533 4.758-0.533 7.397-1.053h0.533c5.291-1.067 10.582-1.587 15.339-2.653h0.52c2.667-0.533 5.291-1.053 7.397-1.587h0.547c2.639-0.533 5.291-1.053 7.397-1.587 0 0 0 0 0.533 0 5.305-1.053 10.582-2.639 15.339-4.224v0c2.639-0.533 5.305-1.587 7.411-2.12 0 0 0 0 0.52 0 2.653-1.067 5.291-1.587 7.411-2.653v0c7.931-2.639 15.339-5.291 22.75-8.463v0c20.083-8.463 39.142-17.979 57.121-29.614v0c8.982-5.811 17.446-11.635 25.921-17.993 0 0 0.506 0 0.506-0.52 2.134-1.587 3.718-3.171 5.838-4.758 0 0 0.52 0 0.52-0.533 2.12-1.587 3.704-3.171 5.811-4.758 23.283-19.046 43.914-40.729 61.892-64.532v0c32.798-43.367 56.602-94.157 68.236-149.694v0c0.547-2.639 1.053-4.758 1.6-7.397v0c1.053-4.758 1.559-9.529 2.625-14.806 0-0.533 0-0.533 0-1.053 0.547-2.653 0.547-4.771 1.053-7.411v-0.533c0.547-2.12 0.547-4.758 1.080-6.877v-0.52c0-2.134 0.52-4.771 0.52-6.891 0-0.52 0-1.053 0-1.053 0-2.12 0.533-4.758 0.533-6.877v-0.52c0-2.12 0-4.238 0.533-6.891 0-0.52 0-1.053 0-1.053 0-2.12 0-4.758 0-6.877 0-0.52 0-1.053 0-1.587 0-2.106 0-4.758 0-7.397 0-208.947-169.805-378.724-378.724-378.724l1.053-0.52zM780.708 480.798c-17.993 0-32.265-14.287-32.265-32.265 0-130.649-106.326-236.427-236.441-236.427-130.635 0-236.427 106.326-236.427 236.427 0 17.979-14.287 32.265-32.265 32.265s-32.265-14.287-32.265-32.265c0-40.729 7.944-79.858 23.803-116.894 15.339-35.971 37.037-68.236 64.532-95.744 27.508-27.508 59.773-49.191 95.744-64.532 37.009-15.845 76.685-23.789 116.88-23.789 40.729 0 79.871 7.944 116.907 23.79 35.958 15.339 68.223 37.023 95.73 64.532s49.191 59.773 64.532 95.744c15.859 37.037 23.803 76.699 23.803 116.894 0 17.979-14.287 32.265-32.265 32.265zM391.4 540.559c27.521 0 49.724 22.217 49.724 49.724s-22.203 49.711-49.724 49.711c-27.494 0-49.711-22.203-49.711-49.711s22.217-49.724 49.711-49.724zM632.6 540.559c27.508 0 49.724 22.217 49.724 49.724s-22.217 49.711-49.724 49.711-49.711-22.203-49.711-49.711 22.203-49.724 49.711-49.724z" />
<glyph unicode="&#xe911;" glyph-name="phone" d="M496.16 339.408c0.832 0.576 97.088 162.4 97.408 164.48 19.904 43.488 35.968 87.968 2.496 107.712l138.912 234.24c36-26.912 137.824-172.96-52.768-503.936-200.768-348.8-391.84-334.304-430.144-310.688l135.36 228.64c32-18.816 58.944 12.192 108.736 79.552zM159.168 119.984l-0.032 0.192c0 0 105.696 178.112 105.76 178.176 8.384 14.112 26.4 18.56 40.448 10.368l64.768-38.304-135.744-229.312c0 0-64.768 38.112-64.736 38.24h-0.128c-14.88 8.832-18.304 27.072-10.336 40.64zM513.6 660.176v0.128c-14.88 8.8-18.368 27.040-10.4 40.48l-0.064 0.192c0 0 108.736 183.328 108.8 183.36 8.352 14.176 26.432 18.56 40.416 10.368l64.768-38.304-138.752-234.368c0 0-64.736 38.048-64.768 38.144z" />
<glyph unicode="&#xe912;" glyph-name="envelope" d="M127.34 690.139l278.46-242.139-278.529-242.198c-6.982 6.613-11.271 16.014-11.271 26.445v431.507c0 10.41 4.358 19.78 11.34 26.386zM932.729 690.198c6.982-6.613 11.271-16.014 11.271-26.445v-431.507c0-10.409-4.358-19.78-11.34-26.386l-278.46 242.139 278.529 242.198zM627.266 424.579l262.734-228.579h-720l262.734 228.579 97.266-84.579 97.266 84.579zM152.129 736c-39.836 0-72.129-32.202-72.129-71.786v-432.428c0-39.646 32.031-71.786 72.129-71.786h755.741c39.836 0 72.129 32.202 72.129 71.786v432.428c0 39.646-32.031 71.786-72.129 71.786h-755.741zM530 386.8l-360 313.2h720l-360-313.2z" />
<glyph unicode="&#xe913;" glyph-name="arrow-left" d="M101.365 488.523l279.472 279.508c24.030 24.030 63.026 24.030 87.056 0s24.030-63.026 0-87.056l-174.393-174.393h591.653c33.972 0 61.55-27.578 61.55-61.586s-27.578-61.55-61.55-61.55h-591.653l174.393-174.393c24.066-24.030 24.066-63.026 0-87.056-12.015-12.015-27.788-18.058-43.529-18.058s-31.513 6.043-43.529 18.058l-279.472 279.472c-24.066 24.030-24.066 63.026 0 87.056z" />
<glyph unicode="&#xe914;" glyph-name="close" d="M927.863 152.849l-120.683-120.683-295.578 295.606-292.023-292.023-120 119.886 292.052 292.023-295.522 295.578 120.683 120.683 295.578-295.578 292.023 292.081 120.028-119.973-292.023-292.023z" />
</font>
</defs>
</svg>
